# xmcd CD database file
#
# Track frame offsets:
#	151
#	17465
#	30753
#	47092
#	70695
#	88973
#	112248
#	128525
#	147371
#	163105
#
# Disc length: 2423 seconds
#
# Revision: 0
# Processed by: cddbd v1.4PL0 Copyright (c) Steve Scherf et al.
# Submitted via: Feurio! 1.65 - http://www.feurio.com
#
DISCID=7e09750a
DTITLE=Peabo Bryson - Peabo
DYEAR=1900
DGENRE=blues
TTITLE0=Just Another Day
TTITLE1=Do You Believe In Love
TTITLE2=Just A Matter Of Time
TTITLE3=I Can Make It Better
TTITLE4=You Bring Out The Best In Me
TTITLE5=Smile
TTITLE6=Underground Music
TTITLE7=Lovely Day
TTITLE8=Let The Music Play
TTITLE9=God Is On Our Side
EXTD=
EXTT0=
EXTT1=
EXTT2=
EXTT3=
EXTT4=
EXTT5=
EXTT6=
EXTT7=
EXTT8=
EXTT9=
PLAYORDER=
